<svg width="400" height="240" xmlns="http://www.w3.org/2000/svg"><rect width="400" height="240" fill="#f8fafc" rx="8"/><circle cx="200" cy="120" r="20" fill="#3b82f6" stroke="#1d4ed8" stroke-width="2"/><text x="200" y="125" text-anchor="middle" fill="white" font-size="12" font-weight="bold">G</text><circle cx="272" cy="120" r="12" fill="#e5e7eb" stroke="#9ca3af" stroke-width="1"/><text x="272" y="123" text-anchor="middle" fill="#374151" font-size="10">1</text><line x1="200" y1="120" x2="272" y2="120" stroke="#4b5563" stroke-width="2" opacity="0.6"/><circle cx="236" cy="182.35382907247958" r="12" fill="#e5e7eb" stroke="#9ca3af" stroke-width="1"/><text x="236" y="185.35382907247958" text-anchor="middle" fill="#374151" font-size="10">2</text><line x1="200" y1="120" x2="236" y2="182.35382907247958" stroke="#4b5563" stroke-width="2" opacity="0.6"/><circle cx="164" cy="182.35382907247958" r="12" fill="#e5e7eb" stroke="#9ca3af" stroke-width="1"/><text x="164" y="185.35382907247958" text-anchor="middle" fill="#374151" font-size="10">3</text><line x1="200" y1="120" x2="164" y2="182.35382907247958" stroke="#4b5563" stroke-width="2" opacity="0.6"/><circle cx="128" cy="120.00000000000001" r="12" fill="#e5e7eb" stroke="#9ca3af" stroke-width="1"/><text x="128" y="123.00000000000001" text-anchor="middle" fill="#374151" font-size="10">4</text><line x1="200" y1="120" x2="128" y2="120.00000000000001" stroke="#4b5563" stroke-width="2" opacity="0.6"/><circle cx="163.99999999999997" cy="57.64617092752043" r="12" fill="#e5e7eb" stroke="#9ca3af" stroke-width="1"/><text x="163.99999999999997" y="60.64617092752043" text-anchor="middle" fill="#374151" font-size="10">5</text><line x1="200" y1="120" x2="163.99999999999997" y2="57.64617092752043" stroke="#4b5563" stroke-width="2" opacity="0.6"/><circle cx="236" cy="57.64617092752042" r="12" fill="#e5e7eb" stroke="#9ca3af" stroke-width="1"/><text x="236" y="60.64617092752042" text-anchor="middle" fill="#374151" font-size="10">6</text><line x1="200" y1="120" x2="236" y2="57.64617092752042" stroke="#4b5563" stroke-width="2" opacity="0.6"/></svg>